<svg width="37" height="15" viewBox="0 0 37 15" fill="none" xmlns="http://www.w3.org/2000/svg">
<path d="M5.38477 10.0648H8.28605C8.90421 9.75565 11.5179 6.17651 14.0886 6.17651C16.6594 6.17651 20.2401 9.75565 20.8583 10.0648L23.7595 9.56134" stroke="white" stroke-width="3" stroke-linecap="round" stroke-linejoin="round"/>
<path d="M6.45152 11.5116C8.91003 11.5116 10.903 9.51861 10.903 7.0601C10.903 4.6016 8.91003 2.60858 6.45152 2.60858C3.99301 2.60858 2 4.6016 2 7.0601C2 9.51861 3.99301 11.5116 6.45152 11.5116Z" stroke="#F8EDD3" stroke-width="3" stroke-linecap="round" stroke-linejoin="round"/>
<path d="M21.7402 11.6228C24.1987 11.6228 26.1917 9.62982 26.1917 7.17131C26.1917 4.7128 24.1987 2.71979 21.7402 2.71979C19.2817 2.71979 17.2887 4.7128 17.2887 7.17131C17.2887 9.62982 19.2817 11.6228 21.7402 11.6228Z" stroke="#F8EDD3" stroke-width="3" stroke-linecap="round" stroke-linejoin="round"/>
<circle cx="21.629" cy="7.06002" r="3.67251" fill="#F8EDD3"/>
<path d="M23.2512 1.99377C23.5597 1.48357 30.4942 3.35482 35.842 12.2682L35.8383 12.2651C30.9347 8.17152 26.3235 4.32196 23.2512 3.67605L23.2512 1.99377Z" fill="#F8EDD3" stroke="#F8EDD3" stroke-linecap="round" stroke-linejoin="round"/>
<circle cx="6.34023" cy="6.94869" r="3.67251" fill="#F8EDD3"/>
</svg>
