<svg width="35" height="14" viewBox="0 0 35 14" fill="none" xmlns="http://www.w3.org/2000/svg">
<path d="M5.04449 9.30103H7.94577C8.56393 9.04956 11.1776 6.13782 13.7483 6.13782C16.3191 6.13782 19.8998 9.04956 20.518 9.30103L23.4193 8.89148" stroke="#485E7E" stroke-width="3" stroke-linecap="round" stroke-linejoin="round"/>
<path d="M6.11119 11.4729C8.5697 11.4729 10.5627 9.47992 10.5627 7.02141C10.5627 4.5629 8.5697 2.56989 6.11119 2.56989C3.65268 2.56989 1.65967 4.5629 1.65967 7.02141C1.65967 9.47992 3.65268 11.4729 6.11119 11.4729Z" stroke="#072450" stroke-width="3" stroke-linecap="round" stroke-linejoin="round"/>
<path d="M21.3999 11.5841C23.8584 11.5841 25.8514 9.59112 25.8514 7.13261C25.8514 4.67411 23.8584 2.68109 21.3999 2.68109C18.9414 2.68109 16.9484 4.67411 16.9484 7.13261C16.9484 9.59112 18.9414 11.5841 21.3999 11.5841Z" stroke="#072450" stroke-width="3" stroke-linecap="round" stroke-linejoin="round"/>
<circle cx="21.2887" cy="7.02132" r="3.67251" fill="#072450"/>
<path d="M22.5097 2.06737C22.8181 1.55716 28.4665 2.27504 33.8143 11.1884C28.9094 7.0937 25.022 4.44271 21.949 3.79663L22.5097 2.06737Z" fill="#072450" stroke="#072450" stroke-linecap="round" stroke-linejoin="round"/>
<circle cx="5.99996" cy="6.91006" r="3.67251" fill="#072450"/>
</svg>
